# xmcd CD database file
#
# Track frame offsets:
#	150
#	16520
#	39672
#	64022
#	82320
#	110647
#	129605
#	152587
#	172875
#	196812
#
# Disc length: 3175 seconds
#
# Revision: 0
# Processed by: cddbd v1.5.1PL0 Copyright (c) Steve Scherf et al.
# Submitted via: CDex 1.51
#
DISCID=7a0c650a
DTITLE=Bleu Metron - s/t
DYEAR=1998
DGENRE=
TTITLE0=The Sum Of Me
TTITLE1=Picture
TTITLE2=The Grace In Our Embrace
TTITLE3=Lift My Fair Skin
TTITLE4=(Am I Still) Sleeping Under Your Dreams - No Call
TTITLE5=In New Orleans
TTITLE6=Toistaiseksi Ilman Nimeä
TTITLE7=You
TTITLE8=Why Should We Ever End
TTITLE9=Confused
EXTD=YEAR: 1998
EXTT0=
EXTT1=
EXTT2=
EXTT3=
EXTT4=
EXTT5=
EXTT6=
EXTT7=
EXTT8=
EXTT9=
PLAYORDER=
